<svg xmlns="http://www.w3.org/2000/svg" viewBox="0 0 512 512"><path d="M422.268 21.113v-2.639C422.268 8.288 413.98 0 403.794 0H382.68c-10.186 0-18.474 8.288-18.474 18.474v2.639h-79.175v-2.639C285.031 8.288 276.743 0 266.557 0h-21.113c-10.186 0-18.474 8.288-18.474 18.474v2.639h-79.175v-2.639C147.794 8.288 139.506 0 129.32 0h-21.113C98.02 0 89.732 8.288 89.732 18.474v2.639H0V512h512V21.113h-89.732zm-42.227-2.639c0-1.43 1.209-2.639 2.639-2.639h21.113c1.43 0 2.639 1.209 2.639 2.639V63.34H380.04V18.474zm-137.237 0c0-1.43 1.209-2.639 2.639-2.639h21.113c1.43 0 2.639 1.209 2.639 2.639V63.34h-26.392V18.474zm-137.237 0c0-1.43 1.209-2.639 2.639-2.639h21.113c1.43 0 2.639 1.209 2.639 2.639V63.34h-26.392V18.474zm390.598 477.691H15.835V163.629h480.33v332.536zm0-348.371H15.835v-26.392h424.907v-15.835H15.835V36.948h73.897v42.227h58.062V36.948h79.175v42.227h58.062V36.948h79.175v42.227h58.062V36.948h73.897v110.846z"/><path d="M36.948 184.742v290.309h438.103V184.742H36.948zm105.567 274.474H52.784v-47.505h89.732v47.505zm0-63.34H52.784v-58.062h89.732v58.062zm0-73.897H52.784v-52.784h89.732v52.784zm0-68.618H52.784v-52.784h89.732v52.784zm105.567 205.855H158.35v-47.505h89.732v47.505zm0-63.34H158.35v-58.062h89.732v58.062zm0-73.897H158.35v-52.784h89.732v52.784zm0-68.618H158.35v-52.784h89.732v52.784zm105.567 205.855h-89.732v-47.505h89.732v47.505zm0-63.34h-89.732v-58.062h89.732v58.062zm0-73.897h-89.732v-52.784h89.732v52.784zm0-68.618h-89.732v-52.784h89.732v52.784zm105.567 205.855h-89.732v-47.505h89.732v47.505zm0-63.34h-89.732v-58.062h89.732v58.062zm0-73.897h-89.732v-52.784h89.732v52.784zm0-68.618h-89.732v-52.784h89.732v52.784z"/></svg>