<svg style="display:none"><symbol viewBox="0 0 56.48 56.48" id="icon-cards__american-express"><path d="M24.25 26.305h-4.284v-5.367h4.284v1.118h-3.002v.967h2.931v1.1h-2.931v1.072h3.002v1.11zm-9.547 0l-1.863-4.206v4.207h-2.61l-.493-1.197h-2.67l-.498 1.197H5.176l2.297-5.367h1.904l2.183 5.082v-5.082h2.094l1.679 3.641 1.541-3.641h2.138v5.367h-1.315l-.005-4.203-1.86 4.203-1.129-.001zm-5.43-2.315l-.877-2.139-.872 2.139h1.749zm20.749 7.954c0 1.491-1.112 1.799-2.233 1.799h-1.6v1.8h-2.493l-1.58-1.777-1.642 1.777h-5.081v-5.367h5.158l1.58 1.758 1.632-1.758h4.098c1.018-.001 2.161.282 2.161 1.768zm-8.731.905l-1.403-1.563h-3.215v.976h2.815v1.096h-2.815v1.068h3.152l1.466-1.577zm3.62-2.098l-1.97 2.116 1.97 2.188v-4.304zm3.734 1.193c0-.47-.32-.659-.784-.659h-1.672v1.367h1.656c.494.001.8-.244.8-.708zm-2.221-5.639H25.14v-5.367h2.95c.655 0 1.138.017 1.554.257.404.24.648.59.648 1.189 0 .855-.57 1.298-.904 1.43.281.107.521.296.635.452.182.267.213.505.213.984v1.055h-1.294l-.006-.677c0-.323.031-.787-.202-1.045-.187-.188-.473-.229-.935-.229h-1.375v1.951zm-.002-3.057h1.559c.249 0 .457-.003.635-.11.165-.087.264-.276.264-.51 0-.23-.103-.396-.269-.474-.152-.086-.386-.097-.608-.097h-1.58l-.001 1.191zm5.922-2.309h-1.309v5.367h1.309v-5.367zm1.316 4.773c-.452-.456-.688-1.074-.688-2.049 0-.796.141-1.524.691-2.099.413-.428 1.064-.625 1.948-.625h1.241v1.15h-1.215c-.471 0-.734.07-.988.318-.219.226-.368.652-.368 1.216 0 .574.112.989.353 1.259.197.213.559.277.894.277h.575l1.812-4.22h1.921l2.172 5.076v-5.076h1.953l2.256 3.738v-3.738h1.312v5.367h-1.816l-2.434-4.028v4.028h-2.611l-.5-1.197h-2.664l-.482 1.197H35.52c-.625-.001-1.414-.139-1.86-.594zm4.303-1.722h1.77l-.889-2.139-.881 2.139zm-2.693-.949c-.012.017-.102.21-.102.582 0 .368.059.545.102.625.045.012.128.026.252.026l.556-1.299h-.438c-.302-.001-.333.031-.37.066zm21.21-11.648v33.695c0 .803-.65 1.454-1.454 1.454H1.454A1.454 1.454 0 0 1 0 45.087V11.393c0-.803.65-1.454 1.454-1.454h53.572c.804 0 1.454.651 1.454 1.454zM14.703 27.192h1.127a.884.884 0 0 0 .81-.528l.17-.38v.022c0 .489.396.885.886.885h1.315c.18 0 .337-.068.478-.159a.87.87 0 0 0 .478.159h4.284a.855.855 0 0 0 .444-.137.867.867 0 0 0 .445.137h1.284a.886.886 0 0 0 .886-.886v-1.066h.489c.111 0 .19.003.249.007.006.091.004.199.004.271l-.002.118.005.677c.004.486.4.879.887.879h1.294a.853.853 0 0 0 .398-.107.875.875 0 0 0 .401.107h1.31c.429 0 .769-.31.852-.714.729.611 1.751.714 2.322.714h1.502c.359 0 .685-.22.818-.555l.262-.643h1.478l.271.652a.89.89 0 0 0 .818.545h2.611a.887.887 0 0 0 .886-.886v-.847l.787 1.305a.887.887 0 0 0 .761.428h1.816a.887.887 0 0 0 .886-.886v-5.367a.886.886 0 0 0-.886-.886h-1.312a.887.887 0 0 0-.888.886v.554l-.61-1.011a.883.883 0 0 0-.758-.428h-1.953a.887.887 0 0 0-.887.886v.753l-.471-1.102a.889.889 0 0 0-.814-.537h-1.921a.881.881 0 0 0-.53.176.878.878 0 0 0-.529-.176h-1.241c-1.052 0-1.834.256-2.408.753a.874.874 0 0 0-.86-.753h-1.309a.882.882 0 0 0-.789.499c-.055-.04-.099-.087-.16-.124-.603-.348-1.234-.375-1.997-.375h-2.95a.864.864 0 0 0-.445.137.855.855 0 0 0-.444-.137h-4.284a.862.862 0 0 0-.478.159.868.868 0 0 0-.478-.159h-2.138a.884.884 0 0 0-.814.541l-.762 1.796-.839-1.822a.891.891 0 0 0-.805-.515H11.56a.886.886 0 0 0-.886.886v.771l-.481-1.122a.888.888 0 0 0-.815-.536H7.474a.887.887 0 0 0-.815.537l-2.296 5.367a.888.888 0 0 0 .814 1.235h1.394c.356 0 .68-.216.816-.546l.271-.652h1.486l.267.648c.137.332.46.549.82.549h2.609a.886.886 0 0 0 .886-.886v-.021l.168.381a.883.883 0 0 0 .809.529zm37.487 6.657c0-.75-.2-1.308-.64-1.76l-.026-.026a.884.884 0 0 0 .405-.746v-1.142a.886.886 0 0 0-.885-.887h-2.572c-.801 0-1.402.235-1.842.592a.88.88 0 0 0-.828-.592h-2.57c-.706 0-1.266.176-1.688.462a.878.878 0 0 0-.764-.462H36.5a.875.875 0 0 0-.781.489c-.062-.042-.105-.093-.172-.132-.619-.331-1.279-.357-1.961-.357h-2.962a.876.876 0 0 0-.784.493c-.449-.294-1.081-.493-1.979-.493h-4.098a.885.885 0 0 0-.65.283l-.971 1.048-.932-1.037a.878.878 0 0 0-.659-.294h-5.158a.886.886 0 0 0-.886.887v5.367c0 .489.396.887.886.887h5.081a.887.887 0 0 0 .65-.285l.979-1.06.929 1.046c.168.189.41.297.663.297h2.493c.49 0 .887-.396.887-.886v-.915h.713c.866 0 1.494-.178 1.949-.449v1.364c0 .489.396.886.887.886h1.289a.886.886 0 0 0 .886-.886v-1.075h.484c.118 0 .201.004.26.008.006.095.006.211.004.287v.78c0 .489.396.886.887.886h1.287a.871.871 0 0 0 .39-.1c.118.061.249.1.392.1h4.28a.87.87 0 0 0 .384-.096.873.873 0 0 0 .385.096h2.498c.797 0 1.441-.194 1.928-.539a.888.888 0 0 0 .815.539h2.498c1.816.002 2.899-.963 2.899-2.578zm-7.975-1.568l-.689-.02c-.219 0-.363-.014-.5-.061a.412.412 0 0 1-.28-.4c0-.17.052-.299.194-.387.128-.087.279-.097.514-.097h2.352v-1.142h-2.57c-1.346 0-1.834.818-1.834 1.598 0 1.697 1.503 1.621 2.701 1.66.225 0 .359.037.457.119.09.076.156.198.156.355a.475.475 0 0 1-.15.35c-.108.102-.281.133-.523.133h-2.488v1.151h2.498c1.293 0 2.016-.539 2.016-1.694 0-.551-.135-.879-.385-1.137-.295-.292-.773-.411-1.469-.428zm-9.334.767c.284.104.519.295.627.451.183.262.209.506.213.979v1.064h-1.287v-.671c0-.323.031-.801-.207-1.051-.188-.192-.473-.238-.941-.238h-1.37v1.96h-1.288v-5.367h2.961c.649 0 1.121.027 1.545.252.403.244.658.58.658 1.192-.002.859-.575 1.296-.911 1.429zm-.51-1.182c0-.229-.099-.396-.265-.483-.156-.092-.386-.097-.612-.097h-1.58v1.206h1.559c.25 0 .463-.009.635-.111.164-.1.263-.286.263-.515zm2.131 3.676h4.28v-1.113l-3.004-.006v-1.067h2.93v-1.095h-2.93v-.977h3.004v-1.109h-4.28v5.367zm12.954-3.261l-.69-.02c-.217 0-.362-.014-.5-.061a.414.414 0 0 1-.279-.4c0-.17.052-.299.193-.387.129-.087.281-.097.515-.097h2.353v-1.142h-2.572c-1.344 0-1.834.818-1.834 1.598 0 1.697 1.504 1.621 2.703 1.66.224 0 .357.037.457.119a.461.461 0 0 1 .155.355.481.481 0 0 1-.149.35c-.109.102-.282.133-.524.133h-2.487v1.151h2.498c1.293 0 2.014-.539 2.014-1.694 0-.551-.133-.879-.385-1.137-.293-.292-.772-.411-1.468-.428z"/></symbol><symbol viewBox="0 0 56.48 56.48" id="icon-cards__mastercard"><path d="M15.051 25.813c-1.058 0-1.869.34-1.869.34l-.224 1.33s.669-.272 1.682-.272c.575 0 .995.064.995.531 0 .284-.051.389-.051.389s-.453-.037-.663-.037c-1.335 0-2.737.568-2.737 2.287 0 1.354.919 1.663 1.49 1.663 1.089 0 1.559-.706 1.583-.708l-.051.59h1.359l.606-4.25c-.001-1.805-1.574-1.863-2.12-1.863zm-.762 4.937c-.479 0-.604-.365-.604-.583 0-.422.229-.93 1.36-.93.264.001.292.028.336.036.03.26-.162 1.477-1.092 1.477zm4.821-3.009c0 .771 1.839.392 1.839 2.31 0 2.051-1.987 1.961-2.334 1.961-1.295 0-1.695-.178-1.732-.188l.206-1.351c.002-.01.65.236 1.371.236.416 0 .956-.041.956-.537 0-.746-1.932-.566-1.932-2.334 0-1.559 1.158-2.015 2.3-2.015.882 0 1.424.121 1.424.121l-.195 1.362s-.837-.069-1.054-.069c-.55.001-.849.121-.849.504zm3.663 2.348c-.034.211.025.498.562.498.137 0 .292-.046.398-.046l-.193 1.312c-.155.043-.594.199-1.157.203-.719.007-1.23-.397-1.23-1.308 0-.612.877-5.655.911-5.688h1.543l-.157.9h.77l-.197 1.452h-.817l-.433 2.677zm5.954-.637s.203-1 .203-1.407c0-1.017-.506-2.257-2.2-2.257-1.552.001-2.701 1.673-2.701 3.563 0 2.181 1.439 2.699 2.666 2.699 1.132 0 1.63-.254 1.63-.254l.272-1.488s-.861.38-1.639.38c-1.657 0-1.367-1.236-1.367-1.236h3.136zm-1.992-2.281c.871 0 .71.979.71 1.057h-1.713c0-.1.162-1.057 1.003-1.057zm-13.998-2.588l-1.217 7.35H9.94l.879-5.541-1.983 5.541H7.773l-.138-5.541-.939 5.541H5.207l1.234-7.35h2.252l.079 4.51 1.521-4.51h2.444zm19.523-.968h-8.014c.079-.15.359-.754.781-1.553h6.607c.237.502.445 1.02.626 1.553zm-1.461-3.076h-4.913c.315-.52.663-1.052 1.033-1.552h2.754c.408.492.785 1.01 1.126 1.552zm-2.564 18.452a14.336 14.336 0 0 1-1.482-1.584h2.993a14.488 14.488 0 0 1-1.472 1.552h-.003l.001.001-.037.031zm2.582-3.078h-5.143c-.313-.5-.605-1.013-.856-1.552h6.843a14.514 14.514 0 0 1-.844 1.552zm1.834-10.008c-.205.418-.386.801-.574 1.79-1.071-.379-1.155 1.695-1.604 4.25h-1.584l.963-5.982h1.437l-.139.867s.512-.943 1.203-.943c.202-.002.298.018.298.018zm2.857 4.643c.52 0 1.276-.379 1.276-.379l-.276 1.684s-.83.211-1.35.211c-1.842 0-2.777-1.271-2.777-3.196 0-2.903 1.733-4.449 3.514-4.449.804 0 1.738.378 1.738.378l-.252 1.635s-.631-.441-1.416-.441c-1.05 0-1.992 1.002-1.992 2.824 0 .897.439 1.733 1.535 1.733zm15.066.534a.473.473 0 0 0-.238.408c0 .081.021.158.063.232a.448.448 0 0 0 .173.175.47.47 0 1 0 .232-.876.48.48 0 0 0-.23.061zm.569.211a.387.387 0 0 1 .002.389.397.397 0 0 1-.338.198.395.395 0 0 1-.392-.392c0-.067.017-.132.054-.195a.39.39 0 0 1 .674 0zm-6.266-1.776c0 1.265.629 2.504 1.913 2.504.925 0 1.437-.645 1.437-.645l-.067.551h1.501l1.18-7.339-1.548.003-.333 2.065s-.58-.803-1.49-.803c-1.415.001-2.593 1.706-2.593 3.664zm3.698-.899c0 .815-.403 1.904-1.239 1.904-.556 0-.816-.466-.816-1.198 0-1.197.537-1.986 1.216-1.986.554.001.839.382.839 1.28zm2.511 7.729a.108.108 0 0 0-.043-.026.157.157 0 0 0 .105-.046.134.134 0 0 0 .016-.17.121.121 0 0 0-.064-.049.38.38 0 0 0-.127-.015h-.174v.505h.082v-.215h.047c.028 0 .051.006.064.018a.454.454 0 0 1 .086.117l.044.08h.101l-.062-.099a.727.727 0 0 0-.075-.1zm-.107-.084h-.1v-.152h.094a.24.24 0 0 1 .08.009.079.079 0 0 1 .035.026.069.069 0 0 1 .012.039c0 .023-.008.043-.025.057s-.05.021-.096.021zm4.047-26.324H1.454C.65 9.939 0 10.59 0 11.393v33.695c0 .803.65 1.454 1.454 1.454h53.572c.804 0 1.454-.651 1.454-1.454V11.393c0-.803-.65-1.454-1.454-1.454zm-3.617 26.58a.435.435 0 0 1-.173.175.475.475 0 0 1-.466 0 .469.469 0 0 1 .002-.815.494.494 0 0 1 .231-.06c.079 0 .155.021.229.06a.425.425 0 0 1 .175.174.477.477 0 0 1 .002.466zm1.048-8.278c.002 8.005-6.484 14.497-14.49 14.499a14.436 14.436 0 0 1-9.73-3.749 14.435 14.435 0 0 1-9.717 3.745c-8.001 0-14.495-6.493-14.495-14.495 0-7.97 6.443-14.444 14.402-14.496h.093c3.738 0 7.146 1.418 9.718 3.745a14.443 14.443 0 0 1 9.722-3.748c8.006-.003 14.497 6.486 14.499 14.492-.002.002-.002.004-.002.007zM50.6 31.244v.504h.082v-.214h.047c.029 0 .052.006.066.017a.51.51 0 0 1 .086.119l.043.079h.101l-.062-.099a.627.627 0 0 0-.074-.1.115.115 0 0 0-.043-.026.155.155 0 0 0 .104-.046.13.13 0 0 0 .016-.17c-.016-.022-.037-.039-.062-.049s-.069-.015-.128-.015H50.6zm.291.103a.074.074 0 0 1-.011.096c-.019.015-.05.021-.097.021h-.099v-.152h.092c.04 0 .066.003.082.008a.08.08 0 0 1 .033.027zm-10.822-5.534c-1.06 0-1.87.34-1.87.34l-.225 1.33s.67-.272 1.682-.272c.575 0 .996.064.996.531 0 .284-.053.389-.053.389s-.452-.037-.664-.037c-1.334 0-2.735.568-2.735 2.287 0 1.354.92 1.663 1.49 1.663 1.088 0 1.558-.706 1.583-.708l-.051.59h1.358l.606-4.25c.003-1.805-1.571-1.863-2.117-1.863zm-.76 4.937c-.48 0-.604-.365-.604-.583 0-.422.229-.93 1.36-.93.263.001.291.028.336.036.029.26-.164 1.477-1.092 1.477zm5.725-3.056c-1.071-.379-1.153 1.694-1.604 4.25h-1.584l.963-5.982h1.438l-.138.867s.513-.943 1.204-.943c.201 0 .297.02.297.02-.205.417-.387.8-.576 1.788z"/></symbol><symbol viewBox="0 0 56.48 56.48" id="icon-cards__paypal"><path d="M33.372 24.888c.228.15.337.385.343.697.002.479-.176.843-.526 1.104-.354.254-.845.384-1.478.384h-.291c-.253.002-.416-.202-.359-.446l.354-1.519a.599.599 0 0 1 .56-.445l.381-.002c.449.002.785.077 1.016.227zM17.505 28.46c-.3.043-.56.103-.771.174l-.496.338c-.116.146-.171.332-.171.571l.226.438c.153.086.379.128.667.128.19 0 .396-.046.612-.134l.46-.237.182-.242c.072-.282.221-.909.238-.987l-.081-.144c-.069.002-.598.062-.866.095zm21.263.006a4.233 4.233 0 0 0-.771.174 1.188 1.188 0 0 0-.501.338c-.112.146-.168.332-.168.572l.229.437c.146.087.369.129.666.129.187 0 .393-.046.608-.133l.457-.237.188-.242c.07-.285.222-.91.234-.988l-.082-.145c-.069 0-.596.062-.86.095zm-27.665-3.831l-.383.002a.591.591 0 0 0-.557.444l-.353 1.52c-.055.246.102.447.356.447h.286c.635 0 1.127-.129 1.48-.389.353-.258.534-.625.526-1.1.002-.313-.111-.549-.337-.698-.229-.149-.57-.226-1.018-.226zM56.48 11.393v33.695c0 .803-.65 1.454-1.454 1.454H1.454A1.454 1.454 0 0 1 0 45.087V11.393c0-.803.65-1.454 1.454-1.454h53.572c.804 0 1.454.651 1.454 1.454zM14.681 25.374c0-.42-.069-.773-.225-1.055a1.732 1.732 0 0 0-.639-.689 3.014 3.014 0 0 0-1.018-.374 8.264 8.264 0 0 0-1.381-.109l-2.444.001a.614.614 0 0 0-.563.447l-1.645 7.163c-.06.242.099.446.353.446h1.17a.601.601 0 0 0 .562-.446l.402-1.738a.599.599 0 0 1 .561-.444h.334c1.432-.002 2.54-.294 3.336-.88.802-.587 1.197-1.363 1.197-2.322zm6.086 1.126c.002-.521-.224-.909-.667-1.157-.441-.249-1.139-.373-2.092-.373-.471 0-.941.037-1.416.11-.351.054-.385.063-.6.111-.445.097-.515.542-.515.542l-.143.589c-.081.376.136.361.226.33.194-.058.303-.117.7-.207.379-.086.779-.151 1.097-.147.468 0 .826.05 1.064.15.235.103.353.278.353.532l-.021.165-.168.104a19.83 19.83 0 0 0-1.727.187 5.375 5.375 0 0 0-1.484.408c-.446.196-.776.458-1.007.794-.223.338-.334.744-.334 1.224 0 .452.162.821.476 1.11.316.283.734.42 1.233.42.316 0 .561-.025.735-.067l.566-.194.48-.268.441-.291.006.007-.044.188-.002.007v.002c-.048.228.09.417.313.438l.004.004h1.088l.016-.006a.605.605 0 0 0 .503-.438l.854-3.692.044-.301.021-.281zm2.592 7.112l4.664-7.887s.448-.674.032-.668c-.277.003-1.404 0-1.404 0-.252 0-.576.205-.736.447 0 0-1.676 2.876-1.839 3.165l-.194-.002-.522-3.143c-.058-.248-.316-.459-.637-.459l-1.049.002c-.252 0-.408.201-.35.446 0 0 .796 4.532.956 5.598.074.59-.009.693-.009.693l-1.037 1.808c-.154.246-.071.446.181.446l1.212-.002c.25 0 .582-.198.732-.444zM35.936 25.4c-.002-.42-.075-.774-.225-1.054a1.795 1.795 0 0 0-.644-.692 2.89 2.89 0 0 0-1.019-.373 8.153 8.153 0 0 0-1.375-.108l-2.447.002a.612.612 0 0 0-.56.445l-1.646 7.167c-.06.243.104.445.353.444l1.173-.003a.605.605 0 0 0 .562-.44l.396-1.741a.604.604 0 0 1 .562-.443h.334c1.432 0 2.545-.295 3.344-.878.791-.593 1.192-1.366 1.192-2.326zm6.093 1.104c0-.521-.223-.907-.669-1.155-.445-.249-1.142-.375-2.091-.375-.471 0-.944.037-1.416.113-.35.051-.385.062-.602.109-.447.096-.514.542-.514.542l-.143.588c-.08.376.131.359.229.33.193-.058.3-.115.695-.207.378-.085.779-.149 1.099-.147.466 0 .824.05 1.062.151a.535.535 0 0 1 .354.531l-.018.165-.168.106c-.67.041-1.15.102-1.728.186a5.457 5.457 0 0 0-1.487.408c-.442.198-.777.459-1.006.795-.224.336-.335.744-.335 1.221 0 .454.163.825.479 1.111.318.281.732.423 1.232.423.313-.005.559-.024.733-.069l.565-.191.483-.267.438-.295.007.009-.039.188-.005.004.002.003a.34.34 0 0 0 .312.438l.002.006h1.088l.016-.006a.603.603 0 0 0 .499-.44l.856-3.689.043-.303.027-.283zm3.72-2.827c.054-.244-.099-.443-.354-.443h-1.047c-.215 0-.409.159-.504.355l-.059.091-.052.232-1.466 6.662-.047.205.002.005c-.049.218.086.385.293.417l.02.025h1.088c.215 0 .413-.162.506-.362l.055-.084 1.568-7.101-.003-.002zm2.081-.928h-.392v-.325h-.193v.325h-.132v.162h.132v.606l.091.3.266.095.111-.009.117-.023v-.171h-.009l-.073.022-.098.014-.12-.019-.062-.06-.027-.094-.003-.14v-.521h.392v-.162zm1.897.401l-.09-.318-.277-.113-.205.042-.21.141-.122-.136-.198-.047-.188.042-.182.116v-.127h-.188v1.139h.188v-.85l.159-.099.157-.039.129.023.064.065.027.109.008.141v.65h.19v-.729l-.002-.06-.003-.056.163-.103.159-.041.127.023.066.065.025.11.012.139v.65h.189v-.737z"/></symbol><symbol viewBox="0 0 56.48 56.48" id="icon-cards__visa"><path d="M55.026 9.939H1.454C.65 9.939 0 10.59 0 11.393v33.695c0 .803.65 1.454 1.454 1.454h53.572c.804 0 1.454-.651 1.454-1.454V11.393c0-.803-.65-1.454-1.454-1.454zM4.373 21h6.028c.813.031 1.468.29 1.694 1.159l1.311 6.305c-1.288-3.298-4.392-6.042-9.083-7.178l.05-.286zm7.294 14.38L8.185 23.484c2.503 1.602 4.635 4.144 5.386 5.913l.406 1.469 3.808-9.729h4.12l-6.123 14.24-4.115.003zm13.266.012h-3.888l2.431-14.268h3.89l-2.433 14.268zm6.766.213c-1.743-.018-3.422-.363-4.332-.762l.547-3.193.501.227c1.277.533 2.104.749 3.661.749 1.117 0 2.314-.437 2.325-1.393.007-.625-.501-1.071-2.015-1.771-1.476-.682-3.43-1.826-3.406-3.875.021-2.773 2.729-4.708 6.572-4.708 1.506 0 2.713.31 3.483.599l-.525 3.092-.351-.165a7.174 7.174 0 0 0-2.91-.546c-1.522 0-2.228.634-2.228 1.227-.008.668.824 1.108 2.184 1.77 2.243 1.018 3.28 2.253 3.266 3.876-.03 2.96-2.683 4.873-6.772 4.873zm16.85-.208s-.355-1.64-.473-2.138l-4.98-.006c-.151.385-.817 2.144-.817 2.144h-4.083l5.773-13.075c.41-.929 1.105-1.184 2.037-1.184h3.004l3.147 14.258-3.608.001z"/><path d="M46.28 24.985c-.198.537-.539 1.4-.517 1.362 0 0-1.229 3.167-1.549 3.988h3.229l-.901-4.12-.262-1.23z"/></symbol><symbol viewBox="0 0 56.693 56.693" id="icon-social--fb"><path d="M40.43 21.739h-7.645v-5.014c0-1.883 1.248-2.322 2.127-2.322h5.395V6.125l-7.43-.029c-8.248 0-10.125 6.174-10.125 10.125v5.518h-4.77v8.53h4.77v24.137h10.033V30.269h6.77l.875-8.53z"/></symbol><symbol viewBox="0 0 56.693 56.693" id="icon-social--instagram"><path d="M43.414 4.831H13c-5.283 0-9.581 4.297-9.581 9.58v30.415c0 5.283 4.298 9.58 9.581 9.58h30.415c5.283 0 9.58-4.297 9.58-9.58V14.41c-.001-5.283-4.298-9.579-9.581-9.579zm2.748 5.713l1.096-.004v8.403l-8.375.027-.029-8.402 7.308-.024zM21.131 24.53c1.588-2.197 4.164-3.638 7.076-3.638s5.488 1.441 7.074 3.638a8.677 8.677 0 0 1 1.652 5.088c0 4.811-3.918 8.725-8.727 8.725-4.812 0-8.726-3.914-8.726-8.725a8.683 8.683 0 0 1 1.651-5.088zm27.033 20.295a4.754 4.754 0 0 1-4.75 4.75H13a4.755 4.755 0 0 1-4.751-4.75V24.53h7.4a13.483 13.483 0 0 0-.998 5.088c0 7.473 6.08 13.557 13.556 13.557 7.475 0 13.555-6.084 13.555-13.557 0-1.799-.361-3.516-1-5.088h7.402v20.295z"/></symbol><symbol viewBox="0 0 256 209" id="icon-social--twitter"><path d="M256 25.45a105.04 105.04 0 0 1-30.166 8.27c10.845-6.5 19.172-16.793 23.093-29.057a105.183 105.183 0 0 1-33.351 12.745C205.995 7.201 192.346.822 177.239.822c-29.006 0-52.523 23.516-52.523 52.52 0 4.117.465 8.125 1.36 11.97-43.65-2.191-82.35-23.1-108.255-54.876-4.52 7.757-7.11 16.78-7.11 26.404 0 18.222 9.273 34.297 23.365 43.716a52.312 52.312 0 0 1-23.79-6.57c-.003.22-.003.44-.003.661 0 25.447 18.104 46.675 42.13 51.5a52.592 52.592 0 0 1-23.718.9c6.683 20.866 26.08 36.05 49.062 36.475-17.975 14.086-40.622 22.483-65.228 22.483-4.24 0-8.42-.249-12.529-.734 23.243 14.902 50.85 23.597 80.51 23.597 96.607 0 149.434-80.031 149.434-149.435 0-2.278-.05-4.543-.152-6.795A106.748 106.748 0 0 0 256 25.45"/></symbol><symbol viewBox="0 0 90 90" id="icon-social--youtube"><path d="M70.939 65.832H66l.023-2.869a2.329 2.329 0 0 1 2.326-2.318h.315a2.332 2.332 0 0 1 2.332 2.318l-.057 2.869zm-18.526-6.148c-1.253 0-2.278.842-2.278 1.873V75.51c0 1.029 1.025 1.869 2.278 1.869 1.258 0 2.284-.84 2.284-1.869V61.557c0-1.032-1.026-1.873-2.284-1.873zM82.5 51.879v26.544C82.5 84.79 76.979 90 70.23 90H19.771C13.02 90 7.5 84.79 7.5 78.423V51.879c0-6.367 5.52-11.578 12.271-11.578H70.23c6.749 0 12.27 5.211 12.27 11.578zM23.137 81.305l-.004-27.961 6.255.002v-4.143l-16.674-.025v4.073l5.205.015v28.039h5.218zm18.75-23.796h-5.215V72.44c0 2.16.131 3.24-.008 3.621-.424 1.158-2.33 2.388-3.073.125-.126-.396-.015-1.591-.017-3.643l-.021-15.034h-5.186l.016 14.798c.004 2.268-.051 3.959.018 4.729.127 1.357.082 2.939 1.341 3.843 2.346 1.69 6.843-.252 7.968-2.668l-.01 3.083 4.188.005-.001-23.79zM58.57 74.607l-.011-12.427c-.004-4.736-3.547-7.572-8.356-3.74l.021-9.239-5.209.008-.025 31.89 4.284-.062.39-1.986c5.473 5.021 8.914 1.58 8.906-4.444zm16.321-1.647l-3.91.021c-.002.155-.008.334-.01.529v2.182c0 1.168-.965 2.119-2.137 2.119h-.766c-1.174 0-2.139-.951-2.139-2.119v-5.739h8.954v-3.37c0-2.463-.063-4.925-.267-6.333-.641-4.454-6.893-5.161-10.051-2.881a5.887 5.887 0 0 0-2.188 2.945c-.444 1.281-.665 3.031-.665 5.254v7.41c.002 12.318 14.964 10.577 13.179-.018zM54.833 32.732a3.55 3.55 0 0 0 1.254 1.584c.56.394 1.276.592 2.134.592.752 0 1.418-.203 1.998-.622.578-.417 1.065-1.04 1.463-1.871l-.099 2.046h5.813V9.74H62.82v19.24a1.907 1.907 0 0 1-3.811 0V9.74h-4.776v16.674c0 2.124.039 3.54.102 4.258.065.713.229 1.397.498 2.06zM37.217 18.77c0-2.373.198-4.226.591-5.562.396-1.331 1.107-2.401 2.137-3.208 1.027-.811 2.342-1.217 3.941-1.217 1.345 0 2.497.264 3.459.781.967.52 1.713 1.195 2.23 2.028a8 8 0 0 1 1.076 2.574c.195.891.291 2.235.291 4.048v6.252c0 2.293-.092 3.98-.271 5.051a8.006 8.006 0 0 1-1.146 3.004c-.58.924-1.329 1.615-2.237 2.056-.918.445-1.968.663-3.154.663-1.325 0-2.441-.183-3.361-.565-.923-.38-1.636-.953-2.144-1.714-.513-.762-.874-1.69-1.092-2.772-.219-1.081-.323-2.707-.323-4.874l.003-6.545zm4.553 9.82c0 1.4 1.042 2.543 2.311 2.543 1.27 0 2.308-1.143 2.308-2.543V15.43c0-1.398-1.038-2.541-2.308-2.541-1.269 0-2.311 1.143-2.311 2.541v13.16zm-16.088 6.645h5.484l.006-18.96L37.652.033h-5.998l-3.445 12.064L24.715 0h-5.936l6.894 16.284.009 18.951z"/></symbol></svg>